<!DOCTYPE svg PUBLIC "-//W3C//DTD SVG 1.1//EN" "http://www.w3.org/Graphics/SVG/1.1/DTD/svg11.dtd">
<!-- Uploaded to: SVG Repo, www.svgrepo.com, Transformed by: SVG Repo Mixer Tools -->
<svg width="800px" height="800px" viewBox="0 0 24 24" version="1.1" xml:space="preserve" xmlns="http://www.w3.org/2000/svg" xmlns:xlink="http://www.w3.org/1999/xlink" fill="#9e9e9e" stroke="#9e9e9e">
<g id="SVGRepo_bgCarrier" stroke-width="0"/>
<g id="SVGRepo_tracerCarrier" stroke-linecap="round" stroke-linejoin="round"/>
<g id="SVGRepo_iconCarrier"> <style type="text/css"> .st0{opacity:0.2;fill:none;stroke:#000000;stroke-width:5.000000e-02;stroke-miterlimit:10;} </style> <g id="grid_system"/> <g id="_icons"> <path d="M20.8,7.3C20,6.8,19,6.6,18.1,6.9l-2.3,0.8C15.2,6.1,13.7,5,12,5H6C3.8,5,2,6.8,2,9v6c0,2.2,1.8,4,4,4h6 c1.7,0,3.2-1.1,3.8-2.7l2.3,0.8c0.3,0.1,0.6,0.2,1,0.2c0.6,0,1.2-0.2,1.7-0.6c0.8-0.6,1.2-1.5,1.2-2.4V9.8 C22,8.8,21.5,7.9,20.8,7.3z M12,17H6c-1.1,0-2-0.9-2-2V9c0-1.1,0.9-2,2-2h6c1.1,0,2,0.9,2,2v6C14,16.1,13.1,17,12,17z M20,14.2 c0,0.3-0.2,0.6-0.4,0.8c-0.3,0.2-0.6,0.2-0.9,0.1L16,14.3V9.7l2.7-0.9C19,8.7,19.3,8.8,19.6,9C19.8,9.2,20,9.4,20,9.8V14.2z"/> </g> </g>
</svg>